<svg xmlns="http://www.w3.org/2000/svg" height="24" width="24" viewBox="0 0 24 24"><title>calendar days</title><g fill="#3B57EA" class="nc-icon-wrapper"><path d="M7.68 4.68c-0.55 0-1-0.45-1-1.01v-2.67c0-0.55 0.45-1 1-1s1 0.45 1.01 1v2.67c0 0.55-0.45 1-1.01 1.01z" fill="#3B57EA"></path><path d="M16.37 4.68c-0.55 0-1-0.45-1.01-1.01v-2.67c0-0.55 0.45-1 1.01-1s1 0.45 1 1v2.67c0 0.55-0.45 1-1 1.01z" fill="#3B57EA"></path><path d="M18.37 2.67h-12.69c-2.03 0-3.67 1.65-3.68 3.67v11.36c0 2.03 1.65 3.67 3.68 3.67h12.69c2.03 0 3.67-1.65 3.68-3.67v-11.36c0-2.03-1.65-3.67-3.68-3.67z m0 16.7h-12.69c-0.92 0-1.67-0.75-1.67-1.67v-8.35h16.03v8.35c0 0.92-0.75 1.67-1.67 1.67z" fill="#3B57EA"></path><path d="M12.02 11.02c-0.74 0-1.34 0.6-1.33 1.34s0.6 1.34 1.33 1.33 1.34-0.6 1.34-1.33-0.6-1.34-1.34-1.34z" data-color="color-2"></path><path d="M16.7 13.69c0.74 0 1.34-0.6 1.34-1.33s-0.6-1.34-1.34-1.34-1.34 0.6-1.33 1.34 0.6 1.34 1.33 1.33z" data-color="color-2"></path><path d="M12.02 15.03c-0.74 0-1.34 0.6-1.33 1.34s0.6 1.34 1.33 1.33 1.34-0.6 1.34-1.33-0.6-1.34-1.34-1.34z" data-color="color-2"></path><path d="M7.35 15.03c-0.74 0-1.34 0.6-1.33 1.34s0.6 1.34 1.33 1.33 1.34-0.6 1.34-1.33-0.6-1.34-1.34-1.34z" data-color="color-2"></path><path d="M16.7 15.03c-0.74 0-1.34 0.6-1.33 1.34s0.6 1.34 1.33 1.33 1.34-0.6 1.34-1.33-0.6-1.34-1.34-1.34z" data-color="color-2"></path></g></svg>