<svg width="44" height="44" xmlns="http://www.w3.org/2000/svg" viewBox="0 0 24 24"><title>find</title><g fill="#232e6c" class="nc-icon-wrapper"><defs><path d="M24.09 0l0 0 0 24.09-24.09 0 0-24.09 24.09 0z" id="1717422935029-5090841_path_1"></path></defs><g id="1717422935029-5090841_Group-3"><g id="1717422935029-5090841_person_search" clip-path="url(#1717422935029-5090841_clip_1)"><path d="M24.09 0l0 0 0 24.09-24.09 0 0-24.09 24.09 0z" id="1717422935029-5090841_person_search" fill="none" stroke="none"></path><path d="M6.02 8.03c0-2.22 1.8-4.01 4.02-4.01 2.22 0 4.01 1.8 4.01 4.01 0 2.22-1.8 4.01-4.01 4.01-2.22 0-4.01-1.8-4.02-4.01z m4.37 6.03c-2.74-0.1-8.38 1.26-8.38 4.01l0 1c0 0.55 0.45 1 1 1l8.57 0c-2.48-2.77-1.23-5.91-1.19-6.01l0 0z m9.11 4.03c0.47-0.8 0.7-1.78 0.48-2.83-0.34-1.65-1.73-2.96-3.39-3.17-2.64-0.34-4.87 1.88-4.51 4.51 0.22 1.67 1.53 3.05 3.17 3.39 1.05 0.22 2.03-0.01 2.83-0.48l1.86 1.87c0.25 0.25 0.62 0.35 0.97 0.26 0.35-0.09 0.62-0.36 0.71-0.71 0.09-0.35-0.01-0.71-0.26-0.97l-1.86-1.87 0 0z m-3.44-0.02c-1.1 0-2.01-0.9-2.01-2.01 0-1.1 0.9-2.01 2.01-2.01 1.1 0 2.01 0.9 2.01 2.01 0 1.1-0.9 2.01-2.01 2.01l0 0z" id="1717422935029-5090841_Group" fill="#232e6c" fill-rule="evenodd" stroke="none"></path></g></g></g></svg>