<svg width="33" height="33" xmlns="http://www.w3.org/2000/svg" viewBox="0 0 33 33">
    <title>git</title>
    <g fill="#ffffff" class="nc-icon-wrapper">
        <defs>
            <path d="M33 0L33 0L33 33L0 33L0 0L33 0Z" id="1717423081685-9273942_path_1"></path>
        </defs>
        <g id="1717423081685-9273942_Group-9">
            <g id="1717423081685-9273942_Frame 4" clip-path="url(#1717423081685-9273942_clip_1)">
                <path d="M33 0L33 0L33 33L0 33L0 0L33 0Z" id="1717423081685-9273942_Frame-4" fill="none" stroke="none"></path>
                <g id="1717423081685-9273942_Group" transform="translate(-.01 1.048)">
                    <path 
                        d="M-1.19414e-05 15.3134C-1.19414e-05 6.85608 7.15427 -1.52588e-05 15.9795 -1.52588e-05C24.8047 -1.52588e-05 31.9591 6.85608 31.9591 15.3134C31.9591 
                        23.7709 24.8047 30.6271 15.9795 30.6271C7.15427 30.6271 -1.19414e-05 23.7709 -1.19414e-05 15.3134L-1.19414e-05 15.3134Z" 
                        id="1717423081685-9273942_Shape" 
                        fill="#ffffff" 
                        fill-opacity=".1" 
                        fill-rule="evenodd" 
                        stroke="none">
                    </path>
                    <path 
                        d="M15.9958 5.49646C10.2908 5.49646 5.66525 9.92918 5.66525 15.3965C5.66525 20.0355 8.99858 23.9171 13.4924 24.9913C13.4442 24.8576 13.4132 24.7025 
                        13.4132 24.5103L13.4132 22.8182C12.9939 22.8182 12.2914 22.8182 12.115 22.8182C11.4082 22.8182 10.7797 22.527 10.475 21.9858C10.1367 21.3843 10.0781 
                        20.4645 9.23962 19.9018C8.99083 19.7146 9.18022 19.5009 9.4669 19.5298C9.99634 19.6733 10.4354 20.0215 10.8486 20.5379C11.2601 21.0552 11.4538 21.1723 
                        12.2226 21.1723C12.5953 21.1723 13.1532 21.1517 13.6783 21.0725C13.9607 20.3853 14.4488 19.7525 15.0454 19.4538C11.6053 19.1148 9.96362 17.4747 9.96362 
                        15.248C9.96362 14.2894 10.3898 13.3621 11.1138 12.5807C10.8762 11.8052 10.5774 10.2237 11.205 9.62146C12.7529 9.62146 13.6887 10.5834 13.9133 10.8433C14.6847 
                        10.59 15.5318 10.4465 16.422 10.4465C17.3138 10.4465 18.1644 10.59 18.9375 10.8449C19.1596 10.5867 20.0962 9.62146 21.6475 9.62146C22.2777 10.2245 21.9755 
                        11.8127 21.7353 12.5865C22.455 13.3662 22.8786 14.291 22.8786 15.248C22.8786 17.473 21.2395 19.1123 17.8046 19.453C18.7498 19.9258 19.4394 21.254 19.4394 
                        22.2547L19.4394 24.5103C19.4394 24.5961 19.4196 24.658 19.4092 24.7314C23.4347 23.3792 26.3264 19.7162 26.3264 15.3965C26.3264 9.92918 21.7009 5.49646 
                        15.9958 5.49646L15.9958 5.49646Z" 
                        id="1717423081685-9273942_Shape" 
                        fill="#ffffff" 
                        stroke="none">
                    </path>
                </g>
            </g>
        </g>
    </g>
</svg>