<svg width="320" height="150" xmlns="http://www.w3.org/2000/svg" viewBox="0 0 265.4 126.1">
    <title>icon 2</title>
    <g class="nc-icon-wrapper">
        <g id="1717807933366-6373388_Group">
            <path d="M166.7 50.8998L167 51.7998L162 51.0998L160.1 49.5998L160 48.1998L163.5 47.3998L165 48.0998L166.7 50.8998L166.7 
                    50.8998ZM106.7 14.2998L109.5 16.1998L117.1 18.8998L119.4 20.2998L120 24.3998L121.1 26.0998L124.1 24.3998L126.4 
                    25.4998L126.8 27.1998L127.7 26.0998L129.3 26.8998L129.2 25.4998L132.5 25.3998L134.6 23.7998L138.3 24.6998L141.9 
                    21.8998L143.9 23.1998L148.3 22.6998L150.4 22.8998L151.8 24.0998L152.5 26.6998L155.3 25.9998L156.9 26.9998L159.4 
                    30.5998L158.1 33.8998L156.7 35.4998L156.3 37.5998L154.7 39.5998L152.4 40.3998L151.3 37.8998L149.4 37.9998L150 
                    39.4998L147.9 39.6998L149.6 43.2998L150.8 42.0998L152.6 41.3998L156.3 41.3998L159.8 43.1998L160.2 45.0998L161.8 
                    45.3998L161.3 47.2998L157.6 45.9998L156 43.9998L150.8 45.2998L146.1 44.7998L146.5 46.6998L145.4 51.6998L147 
                    54.0998L150.9 55.8997L152.1 53.3997L155.4 50.2997L156 48.7997L157.8 50.7997L157.6 53.4998L160.1 53.3997L159.9 
                    54.9998L162.2 55.9998L161.7 54.3998L165.9 55.1998L167.4 53.7998L169.5 55.2998L170 53.6998L167.5 53.1998L168.3 
                    52.0998L170 51.3998L173.3 51.3998L176.1 52.7998L176.6 53.5998L174.9 54.0998L176 56.0998L176.9 54.9998L177.6 
                    56.5998L179.3 56.9998L183.3 56.2997L179.3 54.2997L177.9 53.8997L178.8 52.8997L183.2 52.0998L187.7 52.7998L188.8 
                    53.7998L187.7 54.5998L191 55.0998L193.3 54.6998L194.1 56.4998L194.5 54.8997L197 55.2997L195.9 54.3997L201.6 
                    53.4998L205 54.5998L205.8 55.6998L208.7 55.3998L212.3 57.9998L218 58.4998L220.6 59.6998L219.6 60.2998L220.7 
                    62.7998L222.2 63.5998L219.3 64.9998L217.7 66.8998L217 70.2998L217.7 72.3998L214.9 73.6998L213.4 75.2998L204.4 
                    70.7998L201.9 71.3998L202.2 73.3998L203.8 75.3998L201.1 74.1998L198.8 73.9998L194.6 70.2997L190.8 71.7997L188.5 
                    71.3997L185.8 73.8997L185 77.3997L183.3 76.2997L181.7 76.9998L178.4 74.4998L175.2 75.6998L171.6 71.4998L173.7 
                    68.8997L173.6 66.2997L168.4 67.5997L165.9 66.2997L163.8 67.0997L160.3 70.3997L158.4 69.5997L158 72.7997L155 
                    75.0997L148.3 75.5997L143.2 78.0997L139.7 77.2997L138.9 75.3997L137.7 75.0998L134.7 72.8997L135.3 71.2997L132.9 
                    70.9998L131.7 68.4998L128.2 65.9998L126.9 66.2998L127.6 68.9998L124 71.3998L125 74.0998L124.5 77.3998L123 78.9998L123.3 
                    76.6998L118.1 76.2998L116.3 73.4998L112.8 70.6999L104.2 68.3999L104.6 66.7999L99.4 65.1999L94.8 62.6999L90.4 61.3999L89.9 
                    57.1999L85.8 58.3999L83.2001 57.3999L82.1001 56.1999L80.7001 56.8999L79.1001 55.5999L80.5001 54.7999L80.4001 53.1999L79.1002 
                    51.3999L79.8002 48.0999L81.1002 46.2999L81.4001 44.4999L81.2001 39.0999L82.0001 36.4999L84.3001 37.8999L86.4001 
                    37.4999L90.1001 35.7999L93.1001 35.2999L94.1001 31.8999L98.6001 27.7999L105.1 23.6999L105.3 20.7999L106.8 18.3999L106.7 
                    14.2998L106.7 14.2998Z" 
                id="1717807933366-6373388_Shape" 
                fill="#FFE5E1" 
                fill-rule="evenodd" 
                stroke="#FF5B45" 
                stroke-width="1.0">
            </path>
            <path d="M219.3 65.0998L222.2 63.6998L225.2 64.6998L225.5 65.6998L230.2 68.6998L234 74.0998L238.4 78.3998L241.7 79.1998L245.3 
                    81.7998L245.9 83.3998L247.4 82.2998L251.9 82.5998L255.6 80.4998L258.8 80.9998L262.8 83.6998L264.3 86.0998L264.9 
                    88.9998L264.3 90.6998L261.3 92.2998L258.1 94.8998L257.8 97.5998L255.6 99.6998L252.9 99.7998L249.9 99.0998L246.6 
                    99.0998L242.1 100.2L239.1 100.6L233.3 102.2L230.5 101.7L228.3 102.7L223.8 102.2L216.7 103.5L214.9 104.3L211.5 
                    107.8L207.3 108.5L205.2 112.7L202.9 113.6L200.4 114L199.1 113L199 114.3L196.9 115L196.7 109.3L193.7 109.4L196.1 
                    107.6L197.3 105.1L196.7 102.5L195.2 102.8L193.6 105.6L191.2 105.3L191 107.8L192.9 108.5L190.7 109.5L187.2 112.2L187.1 
                    115L183.4 116L176.4 116.8L171.9 110.8L169.8 108.8L168.5 106.1L168.3 103.4L172.3 100.8L172.3 98.9998L171.2 98.4998L170.9 
                    95.6998L169.1 92.4998L168.6 89.8998L169.7 87.9998L169.6 84.1998L168.5 81.9998L171.4 79.7998L172.7 76.4998L174 76.8998L175.6 
                    75.3998L178.8 74.1998L182.1 76.6998L183.7 75.9998L185.4 77.0998L186.2 73.5998L188.9 71.0998L191.2 71.4998L195 69.9998L199.2 
                    73.6998L201.5 73.8998L204.2 75.0998L202.6 73.0998L202.3 71.0998L204.8 70.4998L213.8 74.9998L215.3 73.3998L218.1 72.0998L217.4 
                    69.9998L218.1 66.5998L219.3 65.0998L219.3 65.0998Z" 
                id="1717807933366-6373388_Shape" 
                fill="#FFE5E1" 
                stroke="#FF5B45" 
                stroke-width="1.0">
            </path>
            <path d="M59.1 120.2L53.4 120.2L47.9 118.5L47 119.3L45.2 118.7L44 119.8L40.1 119.1L38.3 119.6L37.2 121L39.1 121L35.8 122.4L27.9 
                    123L23.4 124.2L17.8 124.3L13.4 125.6L10.1 125.1L8.80005 123.6L8.90002 122.2L10.2 118.9L11.6 118.6L13.6 116.8L13.4 115.9L15 
                    114.1L16.9 110.8L20.2 107.7L19.1 106.1L21.7 106.2L23.8 105.1L25.6 102.4L29.8 99.8999L32.2 97.0999L39.3 93.4999L41.7 
                    92.6999L42.8 89.8999L44.7 88.9999L44.8 90.3999L47.7 89.4999L49 86.0999L52.4 83.6999L52.5 79.9999L53.5 78.8999L54.4 
                    76.1999L52.1 72.6999L49.4 70.7999L46.1 69.7999L46.2 71.1999L42.9 68.9998L42.8 66.7998L44.5001 65.9998L45.9001 63.3998L41.9001 
                    61.4998L41.5001 62.8998L37.3 57.9998L35.7001 57.3998L37.5001 56.3998L39.5001 52.2998L40.2001 53.3998L43.0001 
                    52.0998L45.2001 53.3998L52.1001 53.3998L56.8001 55.1998L61.5001 53.9998L64.5001 54.3998L71.1001 54.4998L72.9001 
                    55.2998L74.2001 58.1998L79.2001 55.8998L80.8 57.1998L82.2001 56.4998L83.3 57.6998L85.9 58.6998L90 57.4998L90.5 61.6998L94.9 
                    62.9998L99.5 65.4998L104.7 67.0998L104.3 68.6998L112.9 70.9998L116.4 73.7997L118.2 76.5997L116.4 79.0997L114.6 79.6997L113.8 
                    76.1997L111.7 75.0997L111.8 78.1997L110.2 81.9997L105.7 81.8997L104.8 83.1997L103.5 89.2997L103.6 90.6997L101.5 92.7997L102.1 
                    95.9997L102.5 102.4L99.8 106L95.7 107.9L92 107.5L91.6 110.5L88.6 109.8L88 110.6L84 110.9L81.4 110.1L80.3 109L77.3 
                    110.3L74.5001 108.3L72.2001 110.4L70.4001 111L65.3001 111.4L62.7001 115.3L57.7001 116.2L57.1002 116.9L59.1 120.2L59.1 120.2Z" 
                id="1717807933366-6373388_Shape" 
                fill="#FFE5E1" 
                stroke="#FF5B45" 
                stroke-width="1.0">
            </path>
            <path d="M78.7999 55.6998L73.7999 57.9998L72.4999 55.0998L70.7 54.2998L64.1 54.1998L61.1 53.7998L56.4 54.9998L51.7 53.1999L44.7999 
                    53.1999L42.5999 51.8999L39.7999 53.1999L39.0999 52.0999L37.0999 56.1999L35.2999 57.1999L32.7999 57.2999L24.2 60.3999L22.1 
                    60.2999L18.5 58.9999L15.1 60.6999L13 59.5999L10.9 59.7999L8.5 58.9999L3.79999 59.0999L0 57.2999L0.799988 51.0999L4.39996 
                    45.6999L6.09998 45.7999L10.4 44.8999L11.9999 44.0999L12.0999 39.2L13.4999 38.9L14.7999 40.5L16.8999 40.8L17.5999 38.4L20.7999 
                    37.3L21.2 36L24.4999 35.6L25.4999 33.2L25.2 31.7L27.4999 30L29.2999 33.6L32.5999 34.2L32.4999 36.5L33.2999 37.3L34.8999 
                    34.9L37.2999 36.3L37.8999 36L39.8999 31L40.7999 29.5L45.2 27.8L46.4999 26.5L48.9999 22.1L48.5999 17.2L48.9999 15.8L52.9 
                    11.9L52.4999 11.2L49.7 11.3L48.7 9.39999L50.7999 3.39999L55.0999 3.89999L57.8999 2.89999L61.6999 0L65.2999 2L69.2999 
                    2.79999L69.7999 4.59998L71.1999 4.49997L70.2999 6.99997L66.9999 7.49997L65.2999 8.59998L65.0999 9.69998L66.0999 11.6L69.6998 
                    9.49997L70.1998 10.9L71.7998 4.99997L76.1998 6.39996L82.3998 7.79996L83.8998 9.89996L78.2999 12.6L78.4999 11.5L77.1999 
                    10.7L77.0999 12.9L80.5999 13.9L82.8999 15.2L85.6999 15.5L83.5999 14.3L82.7999 11.9L85.2999 11.3L86.9999 11.8L89.9999 
                    13.9L89.4999 16.4L85.7 16.7L87.2 17.2L86.7999 18.7L89.0999 18.2L91.1999 20.2L92.7999 18.5999L94.0999 18.5999L96.8998 
                    16.8999L92.5999 15.9999L91.4999 13.7999L93.1999 12.2999L101.7 12.2999L107 14.6999L106.9 18.9998L105.4 21.3998L104.9 
                    23.9998L98.3999 28.0998L93.8999 32.1998L92.8999 35.5998L89.8999 36.0998L86.1999 37.7998L84.0999 38.1998L81.7999 
                    36.7998L80.9999 39.3998L81.2 44.7998L80.9 46.5998L79.6 48.3998L78.9 51.6998L80.2 53.4998L80.2999 55.0998L78.7999 
                    55.6998L78.7999 55.6998Z" 
                id="1717807933366-6373388_Shape" 
                fill="#FFE5E1" 
                stroke="#FF5B45" 
                stroke-width="1.0">
            </path>
            <path d="M175.4 75.6998L173.8 77.1998L172.5 76.7998L171.2 80.0998L168.3 82.2998L169.4 84.4998L169.5 88.2998L168.4 90.1998L168.9 
                    92.7998L170.7 95.9998L171 98.7998L172.1 99.2998L172.1 101.1L168.1 103.7L168.3 106.4L169.6 109.1L171.7 111.1L176.2 117.1L171.7 
                    116.2L170.5 117.2L166.3 117.7L162.6 116.5L160.3 116.9L151.7 112.2L145 112.4L139.3 111.6L136.5 111.9L133.1 113.2L123.6 
                    111.2L117.1 110.6L113.8 110.8L108.1 112.5L105.4 113.1L100.2 113.2L94.1998 115L85.0999 114.7L75.7999 115.7L74.3998 
                    116.5L69.6998 116L66.3998 118.5L63.1998 119.7L57.7998 120.2L56.7998 116.7L57.3998 116L62.3998 115.1L64.9998 111.2L70.0997 
                    110.8L71.8997 110.2L74.1997 108.1L76.9997 110.1L79.9997 108.8L81.0997 109.9L83.6996 110.7L87.6996 110.4L88.2996 109.6L91.2996 
                    110.3L91.6996 107.3L95.3997 107.7L99.4996 105.8L102.2 102.2L101.8 95.7999L101.2 92.5999L103.3 90.4999L103.2 89.0999L104.5 
                    82.9999L105.4 81.6999L109.9 81.7999L111.5 77.9999L111.4 74.8999L113.5 75.9999L114.3 79.4999L116.1 78.8999L117.9 76.3999L123.1 
                    76.7999L122.8 79.0999L124.3 77.4999L124.8 74.1999L123.8 71.4999L127.4 69.0999L126.7 66.3999L128 66.0999L131.5 68.5999L132.7 
                    71.0999L135.5 71.3999L134.9 72.9998L137.9 75.1998L139.1 75.4998L139.9 77.3998L143.4 78.1998L148.5 75.6998L155.2 75.1998L158.2 
                    72.8998L158.6 69.6998L160.5 70.4998L164 67.1998L166.1 66.3998L168.6 67.6998L173.8 66.3998L173.9 68.9998L171.8 71.5998L175.4 
                    75.6998L175.4 75.6998Z" 
                id="1717807933366-6373388_Shape" 
                fill="#FFE5E1" 
                stroke="#FF5B45" 
                stroke-width="1.0">
            </path>
        </g>
    </g>
</svg>