<svg width="320" height="150" xmlns="http://www.w3.org/2000/svg" viewBox="0 0 315.7 139.3">
    <title>icon</title>
    <g class="nc-icon-wrapper">
        <g id="1717807899719-2052994_Group-3">
            <path d="M171.9 53L171.3 53.2L171.5 48.4L171.9 47.6L172.7 51.2L171.9 53L171.9 53ZM170.9 14.2L172.4 15.2L174.7 14.5L175.5 16.1L173.4 18.2L174.1 
                    19L177.4 20.5L178 23L177.9 27.6L176.4 32L176.4 34.7L179.2 39.8L181 40.9L180.9 43.4L176.3 44L172.6 43.1001L169.7 44.1001L166.4 43.3L163.9 
                    43.9001L156.5 41.8L153.5 42.5L152.8 43.8L152 48L150.3 48.9L149.6 47.4L147.3 44.8L144.8 39.3L143.5 38.4L141.5 35.2L139.8 33.9L142.9 32.9L144.2 
                    31.4L144.1 28.9L142.3 25.5L142.4 20.4L144.3 16.8L149.1 17.2L152.3 16.4L158.6 16.8L168.2 15.4L170.9 14.2L170.9 14.2Z" 
                id="1717807899719-2052994_Shape" 
                fill="#FFE5E1" 
                fill-rule="evenodd" 
                stroke="#FF5B45" 
                stroke-width="1.0">
            </path>
            <path d="M239.7 92.3L239.8 93.2L237.3 92.8L237.3 90.7L239.7 92.3L239.7 92.3ZM311.4 5.59999L315.1 5.29999L315.2 6.39999L313.6 7.39999L310.3 6.29999L307.7 
                    6.59999L308.4 4.89999L310.2 4.5L311.4 5.59999L311.4 5.59999ZM301.8 4.89999L301 6L298.9 6.5L299.5 4.7L301.3 4.09999L301.8 4.89999L301.8 4.89999ZM298.4 
                    5L296.4 6.2L293.6 5.2L291.6 5.3L288.9 4.5L288 3.60001L289.6 3.3L294 4.60001L298.4 5L298.4 5ZM284.4 0L287.1 1.3L286.8 2.60001L283.6 1.70001L282.8 
                    0.300018L284.4 0L284.4 0ZM285.3 8.09999L289.4 8.29999L289.2 6.7L290.3 7.7L290.8 6.59999L291.9 8.29999L290.1 9.89999L287.7 9.2L285.4 9.5L280.2 
                    11.9L285.3 8.09999L285.3 8.09999ZM306.9 92.6L303.8 92.7L295.2 92.1L285 93.2L278.9 92.5L274.9 90.7L271.1 89.4L268.6 84.3L268.3 82.3L268.8 79.1L266.7 
                    76L264 75.4L263.5 77.2L264.5 80.4L264.6 89.7L264 92.1L262.5 91.9L263.6 90.3L263.2 87.8L261.6 85.1L259.6 85.9L259 88.3L257.9 89.2L256.3 88.4L254.7 
                    89.9L252.2 88.8L250.6 83.7L247.9 82.5L244.6 82.5L242.4 81.2999L238.1 83L237.6 82.1L232.7 80.5L231.6 81.6L227 81L225.5 83.1L220.5 82.2L218.7 
                    80.2L216.6 76.8L206.6 72.6L203.9 70.8L201.9 70.3L200.7 68.1L197.3 67.4L196.7 66.1L197.9 64.1L199.9 63.4L208 63.7L210.6 63L212.4 63.3L215.9 
                    62.9L219.4 63.6L223 63L225.8 61.8L230.5 61.1L232.8 59.3L232.8 55.7L233.4 53.5L232.8 52.6L235.8 48.7L236.7 43.7L236.6 42.6L232.8 40L232.4 
                    38.1L232.9 35.3L230.9 33.6L229.8 31.5L230.7 28.7L230.8 25.4L228.9 22.8L226.2 21.1L226.6 20.1L229.5 17.6L228.6 16.5L229.2 15.2L230.9 15.4L229.9 
                    9.89998L230.7 8.29997L237.9 8.29997L241 10.5L241.3 12L240.7 15.1L239.8 16.1L241.5 16.8L243.3 16.1L244.8 12.6L251.9 11.5L253.4 10.3L258.4 9.39998L262 
                    7.69998L266.8 4.59998L269.3 4.79997L266.3 6.39998L263.2 7.19998L259.4 9.69998L258.4 10.9L261.5 11.7L265.5 16.4L268 17.7L270 17.4L273 12.4L275.7 
                    11.9L279.4 12.2L280 15.4L281.3 15.8L284.3 15L295.3 12.9L302 13.4L304.8 11.6L305.2 10.2L303.9 8.79997L305.7 8.19997L307.3 8.79997L304.9 13.4L307 
                    15.1L305.4 17.5L305.2 21.3L304.4 22.3L301.9 21.9L298.1 22.4L297.5 23L297.5 28L296.3 29.2L299 33.6L301.9 35.9L303 35.8L306.3 34L307.5 34.3L310 
                    40.5L308.6 42.4L309.6 44.6L309.2 48.2L310.8 53.1L312.3 55.4L310.7 56.7L308.4 60.6L305.1 61.7L297.2 60.8L295 60.9L290.2 60.1L286.5 62.3L283.7 
                    64.9L284.6 65.8L282.8 70L284.8 70.6L283.6 76.4L283.9 77.8L286 78L286 80.8L289 83L290.6 85L297 88L300.2 87.2L302 87.9L305.8 87.7L306.6 88.9L306.9 
                    92.6L306.9 92.6Z" 
                id="1717807899719-2052994_Shape" 
                fill="#FFE5E1" 
                fill-rule="evenodd" 
                stroke="#FF5B45" 
                stroke-width="1.0">
            </path>
            <path d="M201.5 129.5L200 129.6L204.4 126.3L207.2 125.5L209.1 123.5L209.7 125.5L208.5 126.5L201.5 129.5L201.5 129.5ZM216.9 124.2L214.7 126L213.5 
                    126L215.6 123.4L219.1 122.2L216.9 124.2L216.9 124.2ZM165.5 102.1L163.6 102.2L161.7 101.3L161 100.1L162.6 99.7L166.4 101.9L165.5 102.1L165.5 
                    102.1ZM247.9 120.8L251.7 118.3L252.3 119.1L248.9 122.2L243.3 126L241.1 126.9L238.8 127.1L239.4 125.2L241.4 125.5L243.5 123L245.2 123.7L247 
                    122.9L247.9 120.8L247.9 120.8ZM164.9 113.8L166.1 116.9L164.9 119.2L164.3 121.8L167.7 123.4L167.2 124.8L169.6 127.1L167.4 129.8L165.7 
                    131.1L163.1 131.9L154 136.4L148.6 138.3L143.6 138.8L142.1 137.8L137.5 137.6L134.6 136.6L131.5 136.3L129.2 133.2L126.3 131L125 128.6L123.7 
                    123.9L128.4 127.3L130 129.3L132.5 130.2L135.4 130.2L139.3 127L140.2 127.8L140 129.3L141.3 126.9L140.9 126L138 124.9L132.1 114L131.3 111L132.1 
                    107.7L135.1 105.3L136.1 103.5L140.3 101.4L137.1 100.5L138.2 99.6999L147.4 100.9L157 103.6L159.2 105L159.6 106.2L159 109.4L163.2 113.4L164.9 
                    113.8L164.9 113.8Z" 
                id="1717807899719-2052994_Shape" 
                fill="#FFE5E1" 
                fill-rule="evenodd" 
                stroke="#FF5B45" 
                stroke-width="1.0">
            </path>
            <path d="M178 23.1L177.4 20.6L174.1 19.1L173.4 18.3L175.5 16.2L174.7 14.6L172.4 15.3L170.9 14.3L173.3 13.3L174.3 12.1L175.9 11.7L180.1 8.79997L182.9 
                    8.39998L186.1 6.99998L191 6.19998L193.3 5.29999L198.1 6.49998L201.6 5.79999L201.7 7.29999L203.2 9.59999L202.1 10.2L202.2 11.6L200.8 15.1L198.3 
                    12.1L196.7 11.8L195.1 14.1L194.2 12.7L193.6 15.2L194.3 17.7L191 21.9L188.9 22L183.6 21.5L181.8 23.4L179.7 22.3L178 23.1L178 23.1Z" 
                id="1717807899719-2052994_Shape" 
                fill="#FFE5E1" 
                stroke="#FF5B45" 
                stroke-width="1.0">
            </path>
            <path d="M232.7 52.8L231.2 52.6L225.5 47.9L216.8 44.7L208.8 45.3L201.3 46.5L199.1 45.5L194.4 44.1L189 44.1L184.5 44.6L180.8 43.8L180.9 41.3L179.1 
                    40.2L176.3 35.1L176.3 32.4L177.8 28L177.9 23.4L179.5 22.7L181.6 23.8L183.4 21.9L188.7 22.4L190.8 22.3L194.1 18.1L193.4 15.6L194 13.1L194.9 
                    14.2L196.5 11.9L198.1 12.2L200.6 15.2L202 11.7L201.9 10.3L203 9.70003L201.5 7.40002L201.4 5.90002L206.1 5.00003L209.4 7.30003L211.5 8.00003L218 
                    8.90002L219.6 8.40002L230.5 8.50003L229.7 10.1L230.7 15.6L229 15.4L228.4 16.7L229.3 17.8L226.4 20.3L226 21.3L228.7 23L230.6 25.6L230.5 
                    28.9001L229.6 31.7001L230.7 33.8001L232.7 35.5001L232.2 38.3001L232.6 40.2001L236.4 42.8001L236.5 43.9001L235.6 48.9001L232.7 52.8L232.7 52.8Z" 
                id="1717807899719-2052994_Shape" 
                fill="#FFE5E1" 
                stroke="#FF5B45" 
                stroke-width="1.0">
            </path>
            <path d="M150.5 49.3L148.8 49.9L143.7 54.1L141 54.6L136.3 57L134 58.5L132 60.5L127.9 68.2L126.2 69.9L123.9 70.1L121.6 69.4L119.6 69.5L119.5 71.1L117.8 
                    71L117.7 72.6L115.2 74.2L113.9 75.8L113.3 77.8L111.4 79.8L109.8 78.8L108.5 81.4L105 81.6L101.3 81.1L98.3 79.7L98.9 79L97.8 76.5L94.5 80.4L90.5 
                    82.2L91 81.2L83.1 82.1L82.3 80.5L79.6 82L74.1 81.5L72.5 81.8L69.6 84.6L68.3 89.4L67 90.3L68.3 92.9L70 92.1L69.6 93.8L67.1 95.6L66.5 97.1L67.5 
                    98.5L65.7 100.4L64 101.1L60.1 99.2L57 99.2L52.9 101.4L50.1 101.3L45.4 103.2L37 110.1L33.9 111.7L30.9 111.9L30.1 110.4L33 104.5L33.6 101.5L32 
                    99.2L29.2 98.6L26 99.1L20.4 100.5L17.6 101.8L10.3 106.4L7.5 107.1L4.5 106.9L1.5 105.9L0 104L0.1 101.5L1.2 100L2.6 101.2L5.20003 101.7L7.30003 
                    100.4L6.20003 98.6L8.50003 98L9.10003 100.3L15 97.3L20.2 95.9L26.2 93.3L30.7 90.4L32.5 90.5L32.6 91.4L34.8 92.4L40.1 90.5L43.3 92.7L44 93.9L46 
                    92.6L47.1 92.8L48.2 88.6L45.8 91.5L44.8 90.7L44.3 87.2L43 86.5L44.1 84.3L41.3 83.5L39.2 82.1L37.6 78.6L36.5 78.4L38.7 75.2L39.5 70.6L40.6 67.2L41.9 
                    65.1L43 64.8L44.1 62.7L48 58.1L47.9 57.1L50.9 56.6L52.2 55.9L54 53L54.4 51.4L53.6 49.8L55 50.5L56.1 49.7L58.4 51L59.1 48.2L60.2 47.2L62.4 46.7L63.2 
                    43.8L65 44.8L67.2 42.8L66 41.4L63.9 41.3L66.1 39.7L67.2 40.2L68.9 42.5L70.2 41.7L74.5 38.7L75.4 39.7L77.2 37.3L81.4 36.9L86.3 34.5L89.9 33.6L91.5 
                    34.3L94.3 33.3L92.8 32.7L95.8 31.3L99.3 31.3L100.6 28.4L103.9 28.2L104.7 29.5L106.8 26.7L107.9 26.2L110.9 28.3L112.6 27.1L114.1 24.2L115.4 
                    22.8L117.6 21.9001L121.3 19.7001L124.1 19.0001L126.1 20.3001L125.2 22.1001L126.7 24.6001L128.5 22.9001L127.4 20.8001L129.9 19.3001L132.9 
                    18.7001L134.3 17.9001L137.1 18.8L138.4 17.9001L139.5 19.1001L138.3 20.6001L140 19.8L139.8 21.3L142.4 20.5L142.3 25.6001L144.1 29L144.2 
                    31.5L142.9 33L139.8 34L141.5 35.3L143.5 38.5L144.8 39.4L147.3 44.9L149.6 47.5L150.5 49.3L150.5 49.3Z" 
                id="1717807899719-2052994_Shape" 
                fill="#FFE5E1" 
                stroke="#FF5B45" 
                stroke-width="1.0">
            </path>
        </g>
    </g>
</svg>