<svg width="283" height="200" xmlns="http://www.w3.org/2000/svg" viewBox="0 0 283.2 200.7">
    <title>icon 3</title>
    <g class="nc-icon-wrapper">
        <g id="1717807915548-8353478_Group-2">
            <path d="M88.6 22.3L89.9 23.3L88.2 24.2L84.4 21L86.1 19.4L85.9 20.6L87.7 21.1L88.6 22.3L88.6 22.3ZM72.4 14.3L74.1 14.8L73.3 
                    16.5L71.8  15.6L69.7 17.3L69.2 15.3L72.4 14.3L72.4 14.3ZM77.8 18.4L75.7 17.3L76.5 16.1L75.2 15.7L75.9 14.6L78.3 14.3L78.9 
                    15.7L77.2 16.8L77.8 18.4L77.8 18.4ZM48.6 12.8L50 14.9L42.9 13.7L41.8 12.9L43.7 12.9L47.1 11.2L48.7 11L49.9 11.8L48.6 
                    12.8L48.6 12.8ZM61.6 7.3L62.4 9.5L60.2 8.8L60 6.5L61.6 7.3L61.6 7.3ZM56.2 6L54.8 6.7L50.5 5.09999L51.9 2.39999L54.5 
                    4.89999L57 5.29999L56.2 6L56.2 6ZM49 5.3L45.6 2.90001L44.8 1.50002L46.5 0.900009L49.5 4.3L49 5.3L49 5.3ZM39.7 0.5L36.8 
                    0.899994L34.2 2.2L35 0.399994L38.1 0L39.7 0.5L39.7 0.5ZM113.5 40.6L108.1 37L105.7 34.4L104.4 35L101.9 34.2L99.6 32.5L99.2 
                    31.4L97.1 29.9L96.1 27.7L94.8 27.1L91.8 28L91.7 26.6L95.1 25.9L96.3 26.4L100 30.6L101.5 31.8L104.8 32.7L107.4 34.9L110.3 
                    36L111.7 37.4L113.5 40.6L113.5 40.6ZM24.8 6.7L27.3 11.3L28.7 12.3L33.7 13.3L36 15.6L41.2 16L44.2 17.8L46.6 18.5L51.1 
                    18.1L55.3 16.4L54.7 14.6L55.9 14.5L59.6 16.4L62.6 16.6L62.9 14.8L64.4 15.7L67 20.5L69.7 22L73.5 22.6L75.8 20.5L80.1 
                    19.2L80.7 19.9L78.8 21.5L77.2 20.7L76.4 21.4L75.6 24.1L76.8 25.8L78.2 26.5L82.3 27.1L87.3 30.9L88.5001 29.9L90.7001 
                    30L92.5001 37.7L94.4001 38.5L96.8001 41.1L98.4001 44.6L100.6 47L104.5 47.5L107.3 51.7L107.3 53.6L106 56.1L107.4 57.7L109.8 
                    62.4L111.9 65.1L111.4 70.2L107.8 69L106.2 68.9L104.1 69.8L102.9 71.1L101.6 74.5L100.4 75.9L98.6 76.4L96.1 75.2L94.7001 
                    75.7L91.8 74.9L88.7001 75.9L87.4001 75.7999L85.2001 73.4L82.9001 73.3L82.1001 74.1L82.5001 76.7L84.3 80.3L85.9001 81L85.5001 
                    83.4L83.0001 88L81.3 89.6L79.2 89.4L77.4001 88.5L73.3 87.5L71.9001 88L70.6001 90.5L68.7001 90.9L64.9001 93.2L65.0001 
                    92.2L63.4001 90.9L63.0001 86.4L61.1001 84.2L59.5001 79.2L59.2001 74.1L60.5001 69.8L58.7001 69L57.2001 66.6L56.1001 63L53.4001 
                    63.3L50.0001 60.3L49.3001 58.4L50.8001 55.9L49.6001 54.5L49.7001 52L48.4001 51.3L47.3001 48L48.5001 46.4L48.2001 44.4L47.5001 
                    45.1L45.0001 45.1L44.0001 47.6L40.0001 49.1L39.2001 48.6L39.8001 45.5L37.1001 45.3L35.5001 43.9L34.2 43.9L32.9 45.4L30 
                    47.2L28.5 44.9L26.9 40L27.3 36.4L26.3 34.2L27.7 32.3L25.2 26.1L24 25.8L20.7 27.6L19.6 27.7L16.7 25.4L14 21L15.2 19.8L15.2 
                    14.8L15.8 14.2L19.6 13.7L22.1 14.1L22.9 13.1L23.1 9.29999L24.8 6.7L24.8 6.7Z" 
                id="1717807915548-8353478_Shape" 
                fill="#FFE5E1" 
                fill-rule="evenodd" 
                stroke="#FF5B45" 
                stroke-width="1.0">
            </path>
            <path d="M121.9 39.9L121.5 39.9L121.3 38.5L124 38.3L121.9 39.9L121.9 39.9ZM139.1 37.8L137.5 38.7L136.1 37.3L131.9 37L131.5 36L138.1 
                    36.4L139.1 37.8L139.1 37.8ZM59.7 101.6L59.9 98L65.1 92.9L68.9 90.6L70.8 90.2L72.0999 87.7L73.4999 87.2L77.5999 88.2L79.3999 
                    89.1L81.4999 89.3L83.2 87.7L85.7 83.1L86.0999 80.7L84.4999 80L82.7 76.4L82.3 73.8L83.0999 73L85.3999 73.1L87.5999 75.5L88.8999 
                    75.6L91.9999 74.6L94.8999 75.4L96.2999 74.9L98.7999 76.1L100.6 75.6L101.8 74.2L103.1 70.8L104.3 69.5L106.4 68.6L108 68.7L111.6 
                    69.9L112.1 64.8L110 62.1L107.6 57.4L106.2 55.8L107.5 53.3L107.5 51.4L112.8 55.9L114.9 56.8L116.7 56.4L120 58.6L121.3 57.7L126.3 
                    58.5L127.4 57.1L130.9 58L135.1 56.7L138 56.2L141.9 56.7L141.5 60.1L140.4 61.2L138.7 66.1L134.7 73.7L134.8 75.9L133.8 78.3L133.9 
                    79.9L137.2 82.6L139.7 83.8L140.1 86.9L137.5 91.6L135.3 91.2L131.6 98.8L131 101.8L128.9 106.3L130.6 109.3L130 112.8L130.6 
                    113.6L132.6 113.6L134.7 112.7L136.5 108.9L139.8 110.7L140.6 117.6L139.4 117.4L136.9 118.4L132.5 118.8L128.8 120.7L125.9 
                    121.5L120.2 121.6L114.2 120.3L111.7 118.4L105.7 118.7L102.8 117.2L101.1 114.7L99.3998 116.8L97.5998 115.7L93.5998 114.2L92.2998 
                    111.9L86.3998 111.4L81.5998 110.2L79.7998 110.2L78.4998 112.7L74.1999 111.1L75.5999 110.1L74.4998 109.3L74.0999 106.5L71.6999 
                    107.8L68.6999 107.5L66.3999 106.8L65.5999 107.5L67.2999 108.5L66.4999 109.4L65.1999 108.8L63.4999 106.2L62.8999 103.1L62.0999 
                    102.1L59.7 101.6L59.7 101.6Z" 
                id="1717807915548-8353478_Shape" 
                fill="#FFE5E1" 
                fill-rule="evenodd" 
                stroke="#FF5B45" 
                stroke-width="1.0">
            </path>
            <path d="M156 184.6L154.8 185.7L153 185.1L150.5 182.6L151.9 182.3L156 184.6L156 184.6ZM143.5 177.5L143.5 178.5L147 178.3L148.3 
                    179.1L149.1 181.1L147.3 180.3L142.3 179.8L140.7 178.1L142.3 176.1L143.5 177.5L143.5 177.5ZM139.4 175.8L136.8 175L132.5 
                    171.8L134.7 171.7L137.2 172.9L140.2 173.5L139.4 175.8L139.4 175.8ZM114.4 155.5L117.2 158.4L116.1 158.9L112.8 158L114.7 
                    157.9L110.2 154.8L112.5 154.4L114.4 155.5L114.4 155.5ZM155.5 45.8L154.9 47.1L153 47.6L152.9 45.8L155.5 45.8L155.5 45.8ZM129.9 
                    169.3L127.4 165.8L125.6 164.3L124 164.1L124.6 165.7L122.1 163.6L125.1 163.4L128.3 165.3L132.9 170.2L131.4 170.2L131.9 
                    171.8L129.9 170.8L126 166.7L127.3 166.6L129.9 169.3L129.9 169.3ZM177.8 51L175.5 52.1L170.4 52.4L166.9 50.6L161.9 49.5L160.6 
                    48.7L161.6 47.9L160.5 46.7L158 48.5L157.8 45.9L158.7 46.5L158.9 45L161.6 45L164.7 45.6L166.4 46.7L173.9 46.6L177.2 
                    44.1L180.5 44.7L182 45.5L182.2 47.1L187 51.9L187.1 53.4L185.3 52.8L176.7 55.1L177.4 53L178.6 53L177.8 51L177.8 51ZM141.8 
                    56.9L148.7 57.6L152 57.3L153.8 62.6L155.4 63L157.1 60L155.1 57.4L157.2 57.7L159.5 60L167.2 62.5L170.2 65.4L173 67.1L178.9 
                    68.2L180.2 68L180.3 70.1L181.3 69.5L182.4 71.7L185.9 74.2L188 74.1L191.5 75.3L195.7 75.8L196.3 78.2L198.7 78.3L199 
                    79.3L201.5 80.1L202.3 81.9L202 83.6L199.7 85.1L195.4 88.9L190.6 90.2L189.8 92.4L190.2 93.7L195.2 98L196.6 100.5L194.8 
                    101.7L194.8 104.2L191.7 104.9L190 104.5L188.2 102.1L187.6 100.4L185.8 101.1L184.2 103.3L184.9 107.5L182.4 110.6L183.2 
                    111.7L177.6 112.2L175.5 117.1L174.1 116L170.5 117.8L168.9 119.3L165.3 121.7L162.7 122.9L159.9 121.1L156.1 120.6L154.9 
                    119.8L155.3 118.7L157 119.4L159.2 119L157.9 116.9L155.2 115.1L153.6 114.9L149 116.5L145.7 116.9L144.3 118.4L140 118.1L139.2 
                    111.2L135.9 109.4L134.1 113.2L132 114.1L130 114.1L129.4 113.3L130 109.8L128.3 106.8L130.4 102.3L131 99.3L134.7 91.7L136.9 
                    92.1L139.5 87.4L139.1 84.3L136.6 83.1L133.3 80.4L133.2 78.8L134.2 76.4L134.1 74.2L138.1 66.6L139.8 61.7L140.9 60.6L141.8 
                    56.9L141.8 56.9Z" 
                id="1717807915548-8353478_Shape" 
                fill="#FFE5E1" 
                fill-rule="evenodd" 
                stroke="#FF5B45" 
                stroke-width="1.0">
            </path>
            <path d="M175.3 184.1L178.3 184.3L177.5 185.4L174.2 186.2L173.1 187L170.7 186.1L175.3 184.1L175.3 184.1ZM259.1 162.1L256.1 
                    161L254.5 163.4L253.7 162.6L253.8 160.3L250.5 159.7L248.7 156.1L246.4 157.8L246.7 159.3L245.7 161.7L242.4 162.1L242 
                    163.4L238.8 164.5L238.1 166.9L236 166.6L234.7 165L233.3 165.3L233.2 170.2L231.6 171L227.3 171.9L225.6 171.8L222 177.2L221.2 
                    183.4L217.9 182.9L216.3 183.4L213.3 185.7L208.7 186L206.2 185.4L205.4 183.7L204.5 184.7L202.1 182.1L199.7 181.4L197.5 
                    178.1L194 175.2L192.2 175.8L191.7 174.1L189.6 170.6L184.5 167L181 166.8L180.2 166.3L178.3 163.2L173.6 159.6L172.8 152L170.3 
                    145.6L170.7 143.4L172.8 143.8L172.6 141.8L169.7 140.6L168.4 134L167.1 131.7L166.3 128L165.2 125.5L162.7 122.6L165.3 121.4L168.9 
                    119L170.5 117.5L174.1 115.7L175.5 116.8L177.6 111.9L183.2 111.4L182.4 110.3L184.9 107.2L184.2 103.3L185.9 101.1L187.7 
                    100.4L188.3 102.1L190.1 104.5L191.8 104.9L194.9 104.2L194.9 101.7L196.7 100.5L195.3 98L190.3 93.7L189.9 92.4L190.7 90.2L195.5 
                    88.9L199.8 85.1L202.1 83.6L202.4 81.9L201.6 80.1L202.8 79.8L204.4 82.4L206.2 84.2L208.5 88.5L210.2 89.4L213.5 92.7L215 
                    95.4L216.8 95.1L217 89.3L218.1 88.2L221.1 88.5L218.2 89.7L217.9 91.8L218.6 93.6L220.7 95.4L222.4 95.3L223.7 96.9L224.4 
                    100.1L228.4 101.9L229.4 101.3L231.2 102.3L235.4 101.6L237.9 102.2L241.1 104.2L241.7 102.6L243.5 102L244.1 103.1L246 102.3L248.5 
                    104.7L246.3 104.3L246.3 107L248.1 111.4L251.1 111.9L252.8 112.7L254.6 111.8L253.5 109.6L250.8 107.8L249.1 103.3L247 102.2L245.7 
                    99.8L244.5 100.5L243.4 99.5L242.5 100.4L236.8 95.1L236 94L234.6 94.3999L236.2 91.7L238.6 90.8999L241.1 93L242.1 95.8999L249.7 
                    101.2L254.8 103L259.3 106.6L264.5 110.1L266.5 110.9L268.8 110.5L268.3 111.9L269.9 114.2L269.7 115.7L267.6 118.9L265.3 
                    116.9L260.7 114.8L258.2 114.4L257.6 115.4L254.8 113.9L253.2 114.1L252.9 115.7L257.1 117.7L260.5 118.1L260.4 120.6L259 
                    121.8L260.5 124.9L264 124.9L263.4 126.3L266.6 124.6L267.8 123.4L268.6 119.2L270.9 115L273.6 115.5L281.4 124.7L282.7 125.7L278.9 
                    128.6L276.1 129.6L271.8 129.1L269.7 135.1L270.7 137L273.5 136.9L273.9 137.6L270 141.5L269.6 142.9L270 147.8L267.5 152.2L266.2 
                    153.5L261.8 155.2L260.9 156.7L259.1 162.1L259.1 162.1ZM178.6 193.3L182.1 196.8L183.3 197.4L184.1 196L185.7 197.3L186.2 
                    198.8L185.4 200.2L181.2 198L180.2 195.9L176.4 193.8L178.6 193.3L178.6 193.3ZM233.7 84.5L232.2 88L233.3 90L231.4 90.5L230 
                    91.6L230.3 90.2L229.1 89.9L228.2 92.6L226 89.2L225.1 88.5L222.6 88.7L220.1 87.3L220.7 84.2L218.2 83L216.6 85.2L214.3 85.1L213.2 
                    82.9L211 80.6L212.1 78.3L215.1 80.3L216.2 80.3L218.5 78.7L220.6 78.4L223.2 80.5L225.7 79.7L229.6 81.7L231.7 80.5L233.5 82.6L233.5 
                    84.5L233.7 84.5L233.7 84.5ZM220.8 68.5L224.3 72.2L222.6 72.4L220.8 70.5L217.9 66.2L218.5 65.1L215.5 62.6L217.2 62.2L220 
                    65.4L220.8 68.5L220.8 68.5ZM216.9 78.5L216.1 77.7L214.6 78.3L213.3 75.3L211.8 74.7L210.6 75.4L211.2 77.4L207.3 75L206.8 
                    74L204.5 72.4L203.8 71.2L205.9 69.8L206.7 67.3L206.8 64.5L205.7 62.3L207.8 62.8L209.1 64.6L207.5 67.1L208 68.3L211.2 68.5L212.5 
                    70.6L213.9 68.5L216.9 70.2L213.9 71.6L216.4 73.1L219.4 74.1L216.9 78.5L216.9 78.5ZM203.4 65.5L199.9 63.3L194.9 62.6L193.1 61.3L194.6 
                    60.4L192.5 58.4L191.4 60.6L189.8 60.1L190.6 57.5L189.5 56L187.9 55.2L186.3 56.3L184.8 55.7L185.8 54.5L189.6 54L192.9 53.1L193.5 53.9L194.9 
                    53.1L196.7 53.6L199.8 56L201.6 59.2L202.2 62.6L203.8 64.2L206.2 64.7L205.1 65.9L203.4 65.5L203.4 65.5Z" 
                id="1717807915548-8353478_Shape" 
                fill="#FFE5E1" 
                fill-rule="evenodd" 
                stroke="#FF5B45" 
                stroke-width="1.0">
            </path>
            <path d="M65 92.9L59.8 98L59.5999 101.6L53.3999 99.8L51.2999 98.1L47.5999 97L45.3999 95.1L37.6999 86.8L37.1999 85.2L35.7999 
                    85.2L34.7999 83.1L36.9999 83.3L38.5999 80.7L36.4999 80L36.5999 79L34.2999 78.4L35.1999 76.3L32.2999 73.7L30.9999 74.7L28.8999 
                    74.1L28.4999 75.8L31.2999 78.3L33.2999 81.5L33.6999 83.3L33.2999 85.1L30.2999 84L24.6999 84.2L23.7999 80.3L22.9999 79.1L19.2 
                    79.3L17.4 78.6L14.2 79.4L7.79999 76.4L6.19998 74.4L3.19998 72.2L3.19998 69.4L1.09998 69.2L0.799988 67.8L2 62L0 61.4L1.79999 
                    57.2L0.899994 56.3L3.69998 53.7L7.39999 51.5L12.2 52.3L14.4 52.2L22.3 53.1L25.6 52L27.9 48.1L29.5 46.8L32.4 45L33.7 
                    43.5L34.9999 43.5L36.5999 44.9L39.3 45.1L38.7 48.2L39.4999 48.7L43.4999 47.2L44.4999 44.7L46.9999 44.7L47.7 44L47.9999 
                    46L46.7999 47.6L47.8999 50.9L49.1999 51.6L49.0999 54.1L50.2999 55.5L48.7999 58L49.4999 59.9L52.8999 62.9L55.5999 62.6L56.7 
                    66.2L58.2 68.6L59.9999 69.4L58.7 73.7L58.9999 78.8L60.5999 83.8L62.4999 86L62.8999 90.5L64.4999 91.8L65 92.9L65 92.9Z" 
                id="1717807915548-8353478_Shape" 
                fill="#FFE5E1" 
                stroke="#FF5B45" 
                stroke-width="1.0">
            </path>
        </g>
    </g>
</svg>