<svg xmlns="http://www.w3.org/2000/svg" height="44" width="44" viewBox="0 0 24 24"><title>password 2</title><g fill="#232e6c" class="nc-icon-wrapper"><path d="M20.28 3.99c-0.55 0-1 0.45-0.99 1v13.96c0 0.55 0.45 1 0.99 1s1-0.45 1-1v-13.96c0-0.55-0.45-1-1-1z" data-color="color-2"></path><path d="M7.99 9.95l-1.34 0.44v-1.41c0-0.55-0.45-1-1-1s-1 0.45-0.99 1v1.41l-1.35-0.44c-0.52-0.17-1.09 0.12-1.25 0.64s0.12 1.09 0.64 1.26l1.34 0.44-0.83 1.14c-0.32 0.45-0.23 1.07 0.22 1.39 0.18 0.13 0.38 0.19 0.58 0.19 0.31 0 0.61-0.14 0.81-0.41l0.83-1.14 0.83 1.14c0.19 0.27 0.5 0.41 0.81 0.41 0.2 0 0.41-0.06 0.58-0.19 0.45-0.32 0.55-0.95 0.22-1.39l-0.83-1.14 1.34-0.44c0.53-0.17 0.81-0.73 0.64-1.26-0.17-0.52-0.72-0.81-1.25-0.64z" fill="#232e6c"></path><path d="M16.31 9.95l-1.35 0.44v-1.41c0-0.55-0.45-1-0.99-1s-1 0.45-1 1v1.41l-1.35-0.44c-0.52-0.17-1.09 0.12-1.25 0.64s0.12 1.09 0.64 1.26l1.34 0.44-0.83 1.14c-0.32 0.45-0.23 1.07 0.22 1.39 0.18 0.13 0.38 0.19 0.59 0.19 0.31 0 0.61-0.14 0.8-0.41l0.83-1.14 0.83 1.14c0.19 0.27 0.5 0.41 0.81 0.41 0.2 0 0.41-0.06 0.58-0.19 0.45-0.32 0.55-0.95 0.22-1.39l-0.83-1.14 1.35-0.44c0.53-0.17 0.81-0.73 0.64-1.26-0.17-0.52-0.73-0.81-1.26-0.64z" fill="#232e6c"></path></g></svg>